<svg width="28" height="29" viewBox="0 0 28 29" fill="none" xmlns="http://www.w3.org/2000/svg">
<path d="M22.097 23.1111H6.22217V13.4593H22.082L22.097 23.1111ZM14.142 14.2336C12.7871 14.235 11.4534 14.5662 10.2595 15.1977C9.06552 15.8292 8.0482 16.7415 7.29783 17.8537C7.19856 17.9666 7.14391 18.1111 7.14391 18.2606C7.14391 18.41 7.19856 18.5545 7.29783 18.6674C8.05303 19.7745 9.07228 20.6819 10.2662 21.3101C11.4601 21.9383 12.7921 22.2681 14.1454 22.2705C15.4987 22.273 16.832 21.948 18.0282 21.3241C19.2244 20.7002 20.247 19.7964 21.0063 18.6921C21.1146 18.5727 21.1745 18.4182 21.1745 18.2581C21.1745 18.0979 21.1146 17.9434 21.0063 17.8241C20.2491 16.7164 19.2266 15.8098 18.0294 15.1845C16.8321 14.5591 15.497 14.2342 14.142 14.2386V14.2336Z" fill="black"/>
<path d="M14.1871 12.5567C12.8408 12.5541 11.5152 12.2296 10.3241 11.6111C9.13288 10.9927 8.11164 10.0987 7.34787 9.00574C7.22053 8.87221 7.14963 8.69583 7.14963 8.51255C7.14963 8.32927 7.22053 8.15289 7.34787 8.01936C8.11121 6.92841 9.13314 6.03761 10.3249 5.42432C11.5167 4.81103 12.8424 4.49377 14.1867 4.50009C15.5311 4.50641 16.8537 4.83611 18.0395 5.46058C19.2253 6.08504 20.2385 6.98539 20.9913 8.08346C21.0992 8.20201 21.1589 8.3557 21.1589 8.515C21.1589 8.67431 21.0992 8.82799 20.9913 8.94655C20.2395 10.0474 19.2271 10.9514 18.0417 11.5804C16.8562 12.2093 15.5333 12.5444 14.1871 12.5567ZM17.1489 8.56186C17.1628 7.97384 16.9987 7.39508 16.6774 6.89945C16.3561 6.40382 15.8923 6.01382 15.3452 5.77923C14.798 5.54463 14.1924 5.47608 13.6055 5.58234C13.0187 5.6886 12.4773 5.96486 12.0505 6.37582C11.6236 6.78678 11.3307 7.31382 11.2091 7.88965C11.0874 8.46547 11.1427 9.06395 11.3677 9.60871C11.5927 10.1535 11.9772 10.6198 12.4723 10.9481C12.9673 11.2764 13.5504 11.4518 14.1471 11.452C14.9312 11.4522 15.6843 11.1499 16.2453 10.6098C16.8063 10.0697 17.1306 9.33465 17.1489 8.56186Z" fill="black"/>
<path d="M14.1569 21.1728C13.5751 21.163 13.0092 20.984 12.5303 20.6582C12.0514 20.3324 11.6809 19.8744 11.4653 19.3416C11.2497 18.8088 11.1986 18.2251 11.3185 17.6638C11.4384 17.1025 11.7239 16.5887 12.1391 16.1868C12.5544 15.785 13.0808 15.5131 13.6523 15.4053C14.2239 15.2975 14.8149 15.3587 15.3513 15.5811C15.8877 15.8034 16.3454 16.1771 16.667 16.6551C16.9886 17.1332 17.1597 17.6943 17.1588 18.2679C17.1575 18.6536 17.0786 19.0352 16.9266 19.3906C16.7746 19.746 16.5526 20.0682 16.2733 20.3384C15.9941 20.6086 15.6633 20.8215 15.3 20.9647C14.9367 21.1079 14.5482 21.1786 14.1569 21.1728Z" fill="black"/>
</svg>
